Poster: 
http://imgh.us/loraxx600.jpg

Info:

Format : AVI
Format/Info : Audio Video Interleave
File size : 986 MiB
Duration : 1h 22mn
Overall bit rate : 1 665 Kbps
Writing application : Nandub v1.0rc2
Writing library : Nandub build 1853/release

Video
ID : 0
Format : MPEG-4 Visual
Format profile : Advanced Simple@L5
Format settings, BVOP : 2
Format settings, QPel : Yes
Format settings, GMC : No warppoints
Format settings, Matrix : Default (H.263)
Muxing mode : Packed bitstream
Codec ID : XVID
Codec ID/Hint : XviD
Duration : 1h 22mn
Bit rate : 1 399 Kbps
Width : 720 pixels
Height : 384 pixels
Display aspect ratio : 1.85:1
Frame rate : 25.000 fps
Color space : YUV
Chroma subsampling : 4:2:0
Bit depth : 8 bits
Scan type : Progressive
Compression mode : Lossy
Bits/(Pixel*Frame) : 0.202
Stream size : 828 MiB (84%)
Writing library : XviD 1.2.1 (UTC 2008-12-04)

Audio
ID : 1
Format : AC-3
Format/Info : Audio Coding 3
Mode extension : CM (complete main)
Format settings, Endianness : Big
Codec ID : 2000
Duration : 1h 22mn
Bit rate mode : Constant
Bit rate : 256 Kbps
Channel(s) : 2 channels
Channel positions : Front: L R
Sampling rate : 48.0 KHz
Bit depth : 16 bits
Compression mode : Lossy
Delay relative to video : 14ms
Stream size : 152 MiB (15%)
Alignment : Split accross interleaves
Interleave, duration : 40 ms (1.00 video frame)
Interleave, preload duration : 500 ms

Cast:
Zac Efron ... Ted (voice)
Taylor Swift ... Audrey (voice)
Danny DeVito ... The Lorax (voice)
Ed Helms ... The Once-ler (voice)
Betty White ... Grammy Norma (voice)

SCREENS: 
http://imgh.us/85898106.png 
http://imgh.us/dsdsxw.png 
http://imgh.us/dsdsdsz.png 
http://imgh.us/dsdsdsdsh.png 
http://imgh.us/dsdsdsdsdsds.png 
http://imgh.us/dsdsdsdsdsdsds.png 
http://imgh.us/dsdsdsdsdsdsdsds.png